<?xml version="1.0" encoding="utf-8"?>
<!-- Generator: Adobe Illustrator 19.2.1, SVG Export Plug-In . SVG Version: 6.00 Build 0)  -->
<svg version="1.1" id="Your_Branding" xmlns="http://www.w3.org/2000/svg" xmlns:xlink="http://www.w3.org/1999/xlink" x="0px"
	 y="0px" viewBox="0 0 120 91" style="enable-background:new 0 0 120 91;" xml:space="preserve">
<style type="text/css">
	.st0{fill:#282D74;}
	
		.st1{fill-rule:evenodd;clip-rule:evenodd;fill:#FFFFFF;stroke:#FFFFFF;stroke-width:0.9486;stroke-linecap:round;stroke-linejoin:bevel;stroke-miterlimit:10;}
	.st2{display:none;fill:#282D74;}
	.st3{display:none;}
	.st4{display:inline;fill:#FFFFFF;}
	.st5{display:inline;fill:#282D74;}
	.st6{display:none;fill-rule:evenodd;clip-rule:evenodd;fill:#FFFFFF;}
	.st7{display:inline;}
	.st8{fill:#FFFFFF;}
	.st9{fill:#FFFFFF;stroke:#282D74;stroke-width:1.5;stroke-miterlimit:10;}
	.st10{display:inline;fill-rule:evenodd;clip-rule:evenodd;fill:#FFFFFF;}
	.st11{display:none;fill:#FFFFFF;}
	.st12{display:inline;fill:#FFFFFF;stroke:#282D74;stroke-width:1.5;stroke-miterlimit:10;}
	.st13{display:none;fill:#FFFFFF;stroke:#282D74;stroke-miterlimit:10;}
	.st14{fill:none;stroke:#FFFFFF;stroke-width:1.5;stroke-miterlimit:10;}
	.st15{display:inline;fill:none;stroke:#282D74;stroke-width:1.5;stroke-miterlimit:10;}
</style>
<g id="Great_Tasting_Water">
	<path class="st0" d="M120,65.2C120,79.4,108.4,91,94.2,91H25.9C11.6,91,0,79.4,0,65.2V25.8C0,11.6,11.6,0,25.9,0h68.3
		C108.4,0,120,11.6,120,25.8V65.2z"/>
	<g>
		<path class="st1" d="M59.7,16.1c7.1,0,14.1,0,21.2,0c2.5,0,3.5,0.8,3.4,3.3c0,7.4-0.4,14-1.3,20.2c-1.3,9.1-3.5,17.9-5.8,26.6
			C76,70.8,72,74,67.2,74c-5,0-10.1,0-15.1,0c-4.8,0-8.6-3.1-9.7-7.7c-1.3-5.2-2.8-10.3-3.8-15.6c-1.1-5.5-1.8-11.1-2.5-16.7
			c-0.5-4.7-0.7-9.4-0.9-14.1c-0.1-3.2,0.6-3.8,3.9-3.8C46,16.2,52.9,16.1,59.7,16.1z M79.1,33.9c-7,2.3-14,1.3-19.4-0.8
			C54,30.9,48.3,30.7,42.4,32c-1.5,0.3-1.9,0.9-1.7,2.2c0.5,4,0.9,7.9,1.7,11.8c1.4,6.7,3,13.3,4.6,20c0.5,2.1,2.3,3.3,4.4,3.4
			c5.4,0.1,10.8,0.1,16.1,0c2.2,0,4.4-1.9,5-4c1.2-4.8,2.6-9.6,3.6-14.5C77.3,45.3,78.1,39.7,79.1,33.9z M40.3,29.8
			c0.9-0.2,1.5-0.4,2.2-0.5c5.6-1,11.3-1.2,16.6,0.9c5.5,2.3,11.1,2.8,16.8,1.8c1.2-0.2,3.2-1.1,3.3-1.8c0.3-3.8,0.2-7,0.2-10.9
			c-13,0-26.1,0.2-39.6,0.2C39.9,23.2,40.1,26.1,40.3,29.8z"/>
	</g>
</g>
<path class="st2" d="M121.3,65.1c0,14.3-11.6,25.8-25.8,25.8H27.4C13.1,91,1.6,79.4,1.6,65.1V25.8C1.6,11.5,13.1,0,27.4,0h68.1
	c14.2,0,25.8,11.6,25.8,25.8V65.1z"/>
<g id="Your_Branding_1_" class="st3">
	<path class="st4" d="M65.1,30.5c-3.8,3.8-7.8,7.8-11.7,11.6s-8,8-11.8,11.8c1.9,1.9,4.1,4.1,6,6.1c0.6,0.6,1.1,0.6,1.9,0.4
		c3.2-0.9,6.4-1.9,9.7-2.6c2.5-0.5,4.8,0.3,6.2,2.6c1.4,2.4,3,4.8,4,7.3c2.3,5.6,6.4,10.1,12.6,9.4c1.6-0.2,3.3-1.2,4.3-2.1
		c1-1,1.9-2.6,2.1-4.2c0.7-6.2-3.8-10.2-9.5-12.5c-2.6-1.1-4.9-2.6-7.3-4.1c-2.4-1.4-3.2-3.7-2.6-6.2c0.7-3.3,1.6-6.5,2.6-9.7
		c0.2-0.7,0.2-1.3-0.4-1.9C69.2,34.6,67.1,32.4,65.1,30.5z"/>
	<ellipse transform="matrix(0.7073 -0.7069 0.7069 0.7073 -25.1883 76.7435)" class="st5" cx="80.1" cy="68.8" rx="3.8" ry="3.8"/>
	<path class="st4" d="M39.8,51.9L24.2,36.3c-1.1-1.1-1.1-2.8,0-3.9l19.5-19.5c1.1-1.1,2.8-1.1,3.9,0l15.5,15.6L39.8,51.9z"/>
</g>
<path id="Eco_Friendly" class="st6" d="M81,34.8C89.7,9.2,56.3,9.2,49.3,28c-5.6-14.4-23.4-17.4-30-8.4C7.1,36,32.8,54.4,43.6,65.6
	C6.1,21.3,38,18,49.2,35c12.3-21,28.3-13,29.2,0.4c-10.2,2-20.2,3.5-28.3,11.7c-7.5,7.7,1,21.5,1.4,22.8
	c7.1-9.7,16.9-16.9,34.2-24.7C71.9,54.2,59.8,64.6,54.6,72c32.4,15.3,48.6-21.5,49.3-49.7C97.3,30.3,89.3,33,81,34.8z"/>
<g id="Employees" class="st3">
	<path class="st4" d="M29.3,24.1c0-6.1,5.1-10.8,11.6-10.8c6.4,0,11.3,4.8,11.3,10.8c0,6.1-5.2,10.9-11.5,10.8
		C34.4,34.9,29.4,30.1,29.3,24.1z"/>
	<path class="st4" d="M67.9,24.1c0-6.1,5.1-10.8,11.6-10.8c6.4,0,11.3,4.8,11.3,10.8c0,6.1-5.2,10.9-11.6,10.9
		C72.9,34.9,67.9,30.1,67.9,24.1z"/>
	<g id="XMLID_4_" class="st7">
		<path class="st8" d="M97.2,50.3c0.1,3.9,0.1,7.7-0.1,11.6C92,64.2,80,66.6,79.9,65.3C81,48.5,66.6,46.7,66.6,46.7
			c4.8-4.5,4.7-6.3,5.4-9.8c1.4-0.5,8.9,0,13.6,0.8C92.4,38.9,97,44.3,97.2,50.3z"/>
		<path class="st8" d="M47.7,35.8c0-6.5,5.5-11.7,12.5-11.6c6.9,0,12.2,5.1,12.2,11.7c0,6.6-5.6,11.8-12.5,11.7
			C53.1,47.4,47.7,42.3,47.7,35.8z"/>
		<path class="st8" d="M22.6,50.3c-0.1,3.9-0.1,7.7,0.1,11.6c5.2,2.3,17.2,4.7,17.3,3.4c-1.1-16.8,13.3-18.6,13.3-18.6
			c-4.8-4.5-4.7-6.3-5.4-9.8c-1.4-0.5-8.9,0-13.6,0.8C27.4,38.9,22.8,44.3,22.6,50.3z"/>
	</g>
	<g id="XMLID_3_" class="st7">
		<path class="st9" d="M80.3,71.8c0,1.4-0.4,2.1-1.7,2.6c-5.6,2.1-11.4,2.9-17.4,2.9c-6.7,0-13.3-1.1-19.7-2.9
			c-1.4-0.4-1.9-1-1.8-2.4c0.1-3.7,0-7.4,0.1-11.1c0.1-7.6,6.2-13.8,13.9-14.4c2,0.9,4.2,1.4,6.6,1.4c2.2,0,4.3-0.4,6.2-1.2
			c0,0,0,0,0,0c1.1,0.1,2,0.2,2.6,0.3c6.8,1.5,11.2,7.3,11.4,14.2C80.3,64.7,80.2,68.2,80.3,71.8z"/>
		<path class="st9" d="M47.7,35.8c0-6.8,5.5-12.2,12.5-12.1c6.9,0,12.2,5.4,12.2,12.2c0,6.9-5.6,12.3-12.5,12.2
			C53.1,47.9,47.7,42.5,47.7,35.8z"/>
	</g>
</g>
<g id="Satisfied_Patrons" class="st3">
	<path class="st10" d="M67.2,65.3c0.5-0.2,0.4-1-0.1-1.2c-3-1.5-2.3-8,0.8-8.9c0.5-0.1,0.5-0.8,0-1.1c-2.2-1.3-2.2-5.9,0.1-8
		c0.4-0.3,0.5-0.6,0.1-0.9c-1.2-0.8-1.8-2.2-1.8-4.2h0c0-1,0.5-2.6,1.4-3.4c0.3-0.3,0.5-0.5,0-0.8c-0.5-0.3-0.9-0.6-0.8-1.1
		c0-0.4,0.5-0.9,0.8-1.3c3.6-5.2,4.6-7.8,4.4-12.9c-0.4-9.6-8.1-7.7-8.1-0.5c-0.4,4.7-4.5,11.5-9.2,12.9c-7.9,2.4-8.3,9.6-8.3,9.6
		l-0.3,2c-0.5,5.3-0.6,10.5,0,15.8l0.5,2.9l0.3,0.6c2.7,5.7,7.3,8.3,16.8,8.3c2.2,0,4.4-1,3.6-1.5C65.1,70.4,65.6,66.1,67.2,65.3z"
		/>
	<path class="st10" d="M41.9,36c0,0-10.1,0-10.1,0c-2.2,0-4,8-4,17.6c0,8.6,1.5,15.8,3.4,17.1c0.4,0.3,0.9,0.2,1.1,0.2h9.7
		c1.5,0,2.7-1.2,2.7-2.6c-2.1-9.8-2.6-19.8,0-29.7C44.6,37.3,43.4,36,41.9,36z"/>
	<path class="st10" d="M68,41L68,41c0,2,1.5,4,3.4,4h15.2c1.9,0,3.4-1.6,3.4-3.5c0-1.9-1.5-3.5-3.4-3.5H71.4C69.5,38,68,39,68,41z"
		/>
	<path class="st10" d="M79,65h-8.2c-1.7,0-3,1.5-3,3.5c0,2,1.4,3.5,3,3.5H79c1.7,0,3-1.5,3-3.5C82,66.5,80.6,65,79,65z"/>
	<path class="st10" d="M87.2,47H71.6c-1.9,0-3.5,1.5-3.5,3.5c0,2,1.6,3.5,3.5,3.5h15.6c1.9,0,3.5-1.5,3.5-3.5
		C90.6,48.5,89.1,47,87.2,47z"/>
	<path class="st10" d="M67.1,60.3c0-0.1,0-0.1,0-0.2c0-0.1,0-0.1,0-0.2L67.1,60.3z"/>
	<path class="st10" d="M84.4,56H70.3c-2.6,0-3.2,1.9-3.2,3.7c0.1,1.8,1.2,3.3,3.2,3.3h14.1c1.8,0,3.2-1.6,3.2-3.5
		C87.6,57.6,86.2,56,84.4,56z"/>
</g>
<path id="Healthy" class="st11" d="M87,35H70V18c0-2.2-2-4-4.2-4h-12c-2.2,0-3.9,1.8-3.9,4v17H32.7c-2.2,0-3.7,2-3.7,4.2v12
	c0,2.2,1.5,3.9,3.7,3.9H50v17.3c0,2.2,1.7,3.7,3.9,3.7h12c2.2,0,4.2-1.5,4.2-3.7V55h17c2.2,0,4-1.7,4-3.9v-12C91,37,89.2,35,87,35z"
	/>
<g id="Accessoires" class="st3">
	<path class="st4" d="M91.3,41.1c1-12.4,3.3-12-7.9-12c-11.1-0.1-8.6-0.4-7.5,12c0.8,9.7-0.1,18.8-0.5,28.2
		c-0.1,3.3,0.9,4.6,4.3,4.7c1.2,0,6.6,0,7.8,0c3.4-0.1,4.4-1.3,4.3-4.7C91.4,59.9,90.5,50.8,91.3,41.1z"/>
	<path class="st4" d="M88.2,26.9H79c-0.6,0-1-0.4-1-1v-1.5c0-0.5,0.4-1,1-1h9.2c0.6,0,1,0.5,1,1v1.5C89.2,26.4,88.7,26.9,88.2,26.9z
		"/>
	<path class="st4" d="M40.8,32.6h-7c-0.5,0-1-0.5-1-1l1-6.8c0-0.5,0.5-1,1-1h4.6c0.5,0,0.9,0.4,1,1l1.4,6.8
		C41.8,32.2,41.4,32.6,40.8,32.6z"/>
	<path class="st4" d="M44.9,53.6c0-4.7,0-9.4,0-14.1c0-3.1-1.1-4.6-4.6-4.6c-1.2,0-5.2,0-6.4,0c-3.5-0.1-4.5,1.4-4.5,4.6
		c0,4.7,0.1,9.4,0,14.1c0,4.1,0,8.2,0,12.3c0,6.6,1.2,8,7.3,8c0.1,0,0.2,0,0.2,0c0,0,0.3,0,0.4,0c6.1,0,7.5-1.4,7.5-8
		C44.9,61.7,44.9,57.6,44.9,53.6z"/>
	<path class="st4" d="M68.3,69.1C67,56.2,64,33.6,63.1,26.9l-0.2-1.6c0,0,0,0,0-0.1c0-0.1-0.1-0.2-0.5-0.2h-4.8
		c-0.2,0-0.3,0-0.4,0.1c0,0-4.1,29.1-5.7,44.3c-0.7,7,1.1,9,8.6,9C67.5,78.4,69.1,76.1,68.3,69.1z"/>
	<path class="st4" d="M63,15h-6c-0.3,0-0.5-0.2-0.5-0.5v-1.1c0-0.3,0.2-0.5,0.5-0.5h6c0.3,0,0.5,0.2,0.5,0.5v1.1
		C63.5,14.8,63.3,15,63,15z"/>
	<path class="st4" d="M62.3,23h-4.6c-0.3,0-0.5-0.2-0.5-0.5v-5.1c0-0.3,0.2-0.5,0.5-0.5h4.6c0.3,0,0.5,0.2,0.5,0.5v5.1
		C62.8,22.8,62.6,23,62.3,23z"/>
</g>
<path id="Economical_Solutions" class="st11" d="M33.2,61.4c7.1,4.3,18.5,4.3,25.6,0c7.1-4.3,7.1-11.3,0-15.6
	c-7.1-4.3-18.6-4.3-25.6,0C26.1,50.1,26.1,57.1,33.2,61.4z M60.9,34.2c7.1,4.3,18.5,4.3,25.6,0c7.1-4.3,7.1-11.3,0-15.6
	c-7.1-4.3-18.5-4.3-25.6,0C53.9,23,53.9,29.9,60.9,34.2z M58.8,65.1c-7.1,4.3-18.6,4.3-25.6,0c-3.5-2.1-5.3-5-5.3-7.8V64
	c0,2.8,1.8,5.6,5.3,7.8c7.1,4.3,18.5,4.3,25.6,0c3.5-2.1,5.3-5,5.3-7.8v-6.7C64.1,60.2,62.4,63,58.8,65.1z M86.6,38
	c-7.1,4.3-18.5,4.3-25.6,0c-3.5-2.1-5.3-5-5.3-7.8v6.7c0,2.8,1.8,5.6,5.3,7.8c7.1,4.3,18.5,4.3,25.6,0c3.5-2.1,5.3-5,5.3-7.8v-6.7
	C91.9,33,90.1,35.8,86.6,38z M86.6,47.7c-5.3,3.2-13,4-19.6,2.4v6.7c6.5,1.6,14.3,0.8,19.6-2.4c3.5-2.1,5.3-5,5.3-7.8v-6.7
	C91.9,42.7,90.1,45.5,86.6,47.7z M86.6,57.4c-5.3,3.2-13,4-19.6,2.4v6.7c6.5,1.6,14.3,0.8,19.6-2.4c3.5-2.1,5.3-5,5.3-7.8v-6.7
	C91.9,52.4,90.1,55.2,86.6,57.4z"/>
<g id="Workplace" class="st3">
	<g id="XMLID_7_" class="st7">
		<path class="st9" d="M54.6,27.5c0-7.7,6.2-13.8,14-13.8c7.7,0,13.7,6.1,13.6,13.8c0,7.8-6.2,14-13.9,13.8
			C60.7,41.3,54.6,35.2,54.6,27.5z"/>
		<path class="st9" d="M91,69.5c0,1.7-0.5,2.5-2,3.1C82.8,75.1,76.3,76,69.6,76c-7.5,0-14.8-1.3-22-3.4c-1.5-0.4-2.1-1.2-2.1-2.9
			c0.1-4.3,0-8.7,0.1-13.1c0.1-8.9,7-16.4,15.5-17c2.2,1,4.7,1.6,7.3,1.6c2.5,0,4.8-0.5,6.9-1.4c0,0,0,0,0,0
			c1.2,0.1,2.2,0.2,2.9,0.4c7.5,1.8,12.5,8.6,12.7,16.7C91,61.1,90.9,65.3,91,69.5z"/>
	</g>
	<path class="st12" d="M66.8,75.9H36.4c-1.3,0-2.6-1.1-2.9-2.5l-4.7-20.8c-0.3-1.4,0.5-2.5,1.8-2.5h30.4c1.3,0,2.6,1.1,2.9,2.5
		l4.7,20.8C68.9,74.7,68.1,75.9,66.8,75.9z"/>
	<path class="st5" d="M50.6,64c-0.5-1.6-2.6-2.6-3.2-4.5l0,0c0,0,0,0,0,0l0,0c0.1,1.9-1.4,2.8-1.3,4.5c0.1,1.3,1.3,2.3,2.7,2.3l0,0
		h0h0l0,0C50.2,66.3,51,65.3,50.6,64z"/>
</g>
<path id="Individual" class="st13" d="M90.5,44.6c0.4-0.4,0.5-1.1,0.1-1.5l-1.2-1.2c-0.7-0.7-1.3-1.4-2-2.1c-2-2.1-4.1-4.1-6.1-6.1
	c-0.9-0.9-1.5-0.7-2.1,0.5c-1.4,2.8-4.2,4.7-7,4.5c-3-0.2-5.2-2.2-5.7-5.2c-0.5-2.9,1.3-6.1,4.2-7.5c1.6-0.8,1.7-1.3,0.6-2.4
	c-2.2-2.2-4.4-4.4-6.6-6.6L62,14.4c-0.4-0.4-1.1-0.4-1.5,0.1L50,24.9c-0.7,0.6-1.2,0.6-1.5,0.2c-0.7-3.3-3.6-5.7-7.1-5.7
	c-4,0-7.3,3.3-7.3,7.3c0,3.5,2.4,6.3,5.6,7.1c0.5,0.4,0.5,0.8-0.1,1.6L29.2,45.7c-0.4,0.4-0.5,1.1-0.1,1.5l2.3,2.3
	c1.5,1.6,3.1,3.2,4.6,4.7c0.8,0.8,1.6,1.6,2.4,2.4c0.9,0.9,1.5,0.7,2.1-0.5c1.4-2.9,4.2-4.7,7-4.5c3.1,0.2,5.3,2.3,5.8,5.4
	c0.4,2.8-1.4,5.9-4.2,7.2c-1.6,0.8-1.7,1.3-0.6,2.4c2.7,2.7,5.4,5.4,8.1,8.1c0,0,0,0,0,0l1.1,1.1c0.4,0.4,1.1,0.4,1.5-0.1L70.1,65
	c0.5-0.2,0.8-0.1,1.2,0.5c0.8,3.1,3.7,5.4,7,5.4c4,0,7.3-3.3,7.3-7.3c0-3.5-2.5-6.5-5.8-7.1c-0.3-0.3-0.3-0.5-0.2-0.9L90.5,44.6z"/>
<g id="Partner" class="st3">
	<g id="XMLID_6_" class="st7">
		<path class="st9" d="M81.6,70.5c0,1.6-0.5,2.5-1.9,3c-6.1,2.5-12.5,3.4-19.1,3.4c-7.4,0-14.5-1.3-21.6-3.4c-1.5-0.4-2.1-1.1-2-2.8
			c0.1-4.3,0-8.5,0.1-12.8c0.1-8.8,6.8-16,15.2-16.6c2.2,1,4.6,1.6,7.2,1.6c2.4,0,4.7-0.5,6.8-1.4c0,0,0,0,0,0
			c1.2,0.1,2.2,0.2,2.8,0.4c7.4,1.8,12.3,8.5,12.5,16.4C81.7,62.2,81.5,66.4,81.6,70.5z"/>
		<path class="st9" d="M46.3,28.8c0-7.6,6-13.5,13.7-13.5c7.5,0,13.4,6,13.4,13.5c0,7.6-6.1,13.7-13.7,13.6
			C52.3,42.3,46.3,36.2,46.3,28.8z"/>
	</g>
	<g class="st7">
		<path class="st14" d="M44,29.1C44,20.2,51.2,13,59.9,13s15.9,7.2,15.9,16.1"/>
		<path class="st8" d="M79.2,29.4c-0.2,2.4-2.2,4.2-4.6,4l0.6-8.7C77.6,24.9,79.4,27,79.2,29.4z"/>
		<path class="st8" d="M40.7,29.5c-0.2-2.4,1.6-4.5,3.9-4.7l0.7,8.7C43,33.7,40.9,31.9,40.7,29.5z"/>
	</g>
	<path class="st15" d="M59.2,36.4c-6.7,0.3-8.8-0.6-12.7-3.5"/>
	<ellipse class="st5" cx="59.9" cy="36.4" rx="3.3" ry="2.4"/>
</g>
</svg>
